<?xml version="1.0" ?><!DOCTYPE svg  PUBLIC '-//W3C//DTD SVG 1.1//EN'  'http://www.w3.org/Graphics/SVG/1.1/DTD/svg11.dtd'><svg enable-background="new 0 0 24 24" height="24px" id="Layer_1" version="1.1" viewBox="0 0 24 24" width="24px" xml:space="preserve" xmlns="http://www.w3.org/2000/svg" xmlns:xlink="http://www.w3.org/1999/xlink"><path d="M19.7,0.5H4.3c-2.1,0-3.8,1.7-3.8,3.8v15.4c0,2.1,1.7,3.8,3.8,3.8h15.4c2.1,0,3.8-1.7,3.8-3.8V4.3  C23.5,2.2,21.8,0.5,19.7,0.5z M12.5,15.4c0,0.3-0.2,0.5-0.5,0.5s-0.5-0.2-0.5-0.5v-4.8c0-0.8-0.7-1.5-1.5-1.5  c-0.8,0-1.5,0.7-1.5,1.5v4.8c0,0.3-0.2,0.5-0.5,0.5s-0.5-0.2-0.5-0.5v-4.8c0-0.8-0.7-1.5-1.5-1.5s-1.5,0.7-1.5,1.5v2.8v2  c0,0.3-0.2,0.5-0.5,0.5s-0.5-0.2-0.5-0.5v-2v-2.8v-2c0-0.3,0.2-0.5,0.5-0.5s0.5,0.2,0.5,0.5v0.1c0.4-0.3,0.9-0.5,1.5-0.5  c0.8,0,1.5,0.4,2,1c0.4-0.6,1.2-1,2-1c1.3,0,2.4,1.1,2.4,2.4V15.4z M20.1,12c-0.1,0.1-0.2,0.2-0.4,0.2h-3.9c-0.3,0-0.5-0.2-0.5-0.5  c0-0.3,0.2-0.5,0.5-0.5h3.3c-0.1-0.4-0.4-0.8-0.7-1.1c-1.1-1.1-2.9-1.1-4,0c-1.1,1.1-1.1,2.9,0,4c1.1,1.1,2.9,1.1,4,0  c0.2-0.2,0.3-0.4,0.5-0.6c0.1-0.2,0.4-0.3,0.7-0.2c0.2,0.1,0.3,0.4,0.2,0.7c-0.2,0.4-0.4,0.6-0.6,0.9c-0.7,0.7-1.7,1.1-2.7,1.1  s-1.9-0.4-2.7-1.1c-1.5-1.5-1.5-3.9,0-5.3c1.5-1.5,3.9-1.5,5.3,0c0.6,0.6,1,1.3,1.1,2.2C20.3,11.8,20.2,11.9,20.1,12z"/></svg>