<?xml version="1.0" ?><svg enable-background="new 0 0 32 32" id="Layer_1" version="1.1" viewBox="0 0 32 32" xml:space="preserve" xmlns="http://www.w3.org/2000/svg" xmlns:xlink="http://www.w3.org/1999/xlink"><g id="OUTLINE_copy_2"><g><g><path d="M16.592,16.065c0.111-0.036,0.226-0.07,0.337-0.103c-0.215-0.487-0.449-0.974-0.695-1.454     c-4.407,1.319-8.635,1.224-8.787,1.219C7.445,15.819,7.441,15.908,7.441,16c0,2.199,0.829,4.204,2.193,5.718     C9.631,21.715,11.973,17.559,16.592,16.065z"/></g><g><path d="M21.652,9.577C20.145,8.248,18.167,7.442,16,7.442c-0.696,0-1.37,0.084-2.016,0.24c0.128,0.173,1.735,2.305,3.2,4.992     C20.412,11.463,21.631,9.608,21.652,9.577z"/></g><g><path d="M17.456,17.4c-5.05,1.76-6.699,5.308-6.717,5.346c1.453,1.13,3.276,1.812,5.261,1.812c1.184,0,2.314-0.242,3.341-0.679     c-0.126-0.748-0.624-3.369-1.828-6.499C17.494,17.388,17.475,17.394,17.456,17.4z"/></g><g><path d="M15.527,13.191c-1.482-2.632-3.065-4.78-3.179-4.932c-2.387,1.127-4.168,3.327-4.724,5.977     C7.85,14.237,11.417,14.282,15.527,13.191z"/></g><g><path d="M17.841,13.95c0.199,0.408,0.392,0.824,0.57,1.241c0.063,0.149,0.125,0.296,0.185,0.443     c2.941-0.37,5.837,0.252,5.961,0.278c-0.02-2.029-0.747-3.891-1.947-5.348C22.594,10.586,21.22,12.569,17.841,13.95z"/></g><g><path d="M19.117,16.984c1.123,3.085,1.578,5.597,1.666,6.114c1.921-1.296,3.287-3.356,3.667-5.741     C24.274,17.3,21.879,16.542,19.117,16.984z"/></g><g><path d="M16,0C7.164,0,0,7.164,0,16s7.164,16,16,16s16-7.164,16-16S24.836,0,16,0z M25.818,18.017     c-0.133,0.645-0.328,1.278-0.584,1.883c-0.25,0.594-0.561,1.168-0.925,1.702c-0.357,0.531-0.77,1.029-1.222,1.483     c-0.453,0.451-0.953,0.864-1.483,1.223c-0.535,0.361-1.109,0.671-1.702,0.923c-0.605,0.255-1.239,0.451-1.882,0.583     c-0.661,0.136-1.34,0.206-2.018,0.206c-0.68,0-1.359-0.069-2.018-0.206c-0.645-0.133-1.278-0.328-1.883-0.583     c-0.594-0.252-1.168-0.563-1.703-0.923c-0.53-0.359-1.029-0.772-1.482-1.223c-0.453-0.455-0.865-0.952-1.223-1.483     c-0.362-0.534-0.672-1.108-0.925-1.702c-0.257-0.605-0.452-1.239-0.585-1.883C6.046,17.357,5.978,16.679,5.978,16     c0-0.68,0.069-1.359,0.203-2.018c0.133-0.645,0.328-1.28,0.585-1.883c0.251-0.595,0.563-1.169,0.925-1.703     c0.358-0.532,0.771-1.029,1.223-1.483C9.366,8.46,9.865,8.049,10.396,7.69c0.535-0.363,1.109-0.674,1.703-0.926     c0.605-0.257,1.239-0.452,1.883-0.584C14.641,6.046,15.32,5.978,16,5.978c0.678,0,1.357,0.069,2.018,0.203     c0.644,0.132,1.277,0.327,1.882,0.584c0.594,0.252,1.167,0.563,1.702,0.926c0.53,0.359,1.03,0.77,1.483,1.222     c0.452,0.455,0.865,0.951,1.222,1.483c0.363,0.534,0.674,1.108,0.925,1.703c0.257,0.604,0.452,1.239,0.584,1.883     c0.135,0.659,0.205,1.338,0.205,2.018C26.022,16.679,25.954,17.357,25.818,18.017z"/></g></g></g></svg>